<svg xmlns="http://www.w3.org/2000/svg" xmlns:xlink="http://www.w3.org/1999/xlink" viewBox="0 0 135.702 117.521" height="444.175" width="512.889"><defs><linearGradient id="a"><stop offset="0" stop-color="#920075"/><stop offset="1" stop-color="#f9c80e"/></linearGradient><linearGradient gradientTransform="translate(11.862 -17.464)" gradientUnits="userSpaceOnUse" y2="50.653" x2="93.349" y1="181.821" x1="93.349" id="b" xlink:href="#a"/><linearGradient gradientTransform="matrix(.5051 0 0 .5051 57.13 14.805)" xlink:href="#a" id="c" x1="93.349" y1="183.246" x2="93.349" y2="36.973" gradientUnits="userSpaceOnUse"/><clipPath id="d" clipPathUnits="userSpaceOnUse"><path d="M181.51 102.639h-29.485l-14.743-25.535 14.743-25.535h29.485l14.743 25.535z" fill="#261447" stroke="#261447" stroke-width="0"/></clipPath><clipPath clipPathUnits="userSpaceOnUse" id="e"><path d="M181.51 102.639h-29.485l-14.743-25.535 14.743-25.535h29.485l14.743 25.535z" fill="#261447" stroke="#261447" stroke-width="0"/></clipPath></defs><path d="M136.392 162.26h-66.12L37.215 105l33.059-57.26h66.119l33.06 57.26z" fill="url(#b)" stroke="#261447" stroke-width="3" transform="translate(-35.481 -46.24)"/><path d="M100.064 26.916H85.43l-7.316-12.672L85.43 1.572h14.633l7.316 12.672zM49.424 26.845H34.791l-7.316-12.673L34.791 1.5h14.633l7.316 12.672z" fill="#c66844" stroke="#261447" stroke-width="3"/><path d="M84.55 70.264H51.152L34.454 41.342 51.153 12.42h33.396l16.698 28.922z" fill="#261447" fill-opacity=".704"/><path d="M96.406 20.58h-7.317l-3.658-6.336 3.658-6.336h7.317l3.658 6.336zM45.766 20.509H38.45l-3.659-6.337 3.659-6.336h7.316l3.658 6.336z" fill="#261447"/><path d="M120.03 105.584H86.635L69.936 76.662l16.698-28.923h33.397l16.698 28.923z" fill="url(#c)" stroke="#261447" stroke-width="3" transform="translate(-35.481 -46.24)"/><path d="M174.139 64.336h-14.743l-7.371-12.767 7.371-.003 3.71 6.492h7.355l3.678-6.37 7.371-.119z" transform="matrix(-.5617 0 0 -.5617 149.732 59.515)" clip-path="url(#d)" fill="#261447"/><path clip-path="url(#e)" transform="matrix(-.5617 0 0 -.5617 173.318 59.585)" d="M174.139 64.336h-14.743l-7.371-12.767 7.371-.003 3.71 6.492h7.355l3.678-6.37 7.371-.119z" fill="#261447"/><path d="M90.041 115.313h-44.38L62.454 83.6h10.794z" fill="#261447"/><path d="M74.384 59.345H61.318l-6.533-11.316 6.533-11.316h13.066l6.533 11.316z" fill="#c66844" stroke="#261447" stroke-width="3"/><path d="M70.507 49.089h-5.312l-2.656-4.6 2.656-4.6h5.312l2.656 4.6z" fill="#261447"/></svg>
